<svg width="25" height="25" viewBox="0 0 25 25" fill="none" xmlns="http://www.w3.org/2000/svg">
<path d="M22.9004 8.39107H12.3047L7.37305 1.38069C7.17773 1.04447 6.90104 0.859539 6.54297 0.825916C6.1849 0.792293 5.8431 0.909974 5.51758 1.17896C5.0293 1.71692 4.99674 2.25489 5.41992 2.79286L9.27734 8.39107H2.09961C1.51367 8.39107 1.01725 8.60121 0.610352 9.0215C0.203451 9.44178 0 9.93772 0 10.5093V11.6189C0 12.5603 0.423177 13.1991 1.26953 13.5354L4.15039 22.664C4.2806 23.1347 4.54102 23.5634 4.93164 23.9501C5.32227 24.3367 5.76172 24.5301 6.25 24.5301H18.75C19.2383 24.5301 19.6777 24.3367 20.0684 23.9501C20.459 23.5634 20.7194 23.1347 20.8496 22.664L23.7305 13.6362C24.5768 13.3 25 12.6612 25 11.7197V10.6102C25 9.97134 24.7965 9.44178 24.3896 9.0215C23.9827 8.60121 23.4863 8.39107 22.9004 8.39107ZM2.09961 10.5093H10.8398L11.5723 11.518C11.6374 11.518 11.6699 11.5516 11.6699 11.6189H2.09961V10.5093ZM18.8477 22.0588V22.1596C18.8477 22.1933 18.8314 22.2269 18.7988 22.2605C18.7663 22.2941 18.75 22.3278 18.75 22.3614H6.34766C6.28255 22.3614 6.25 22.2941 6.25 22.1596L3.56445 13.7371H21.4355L18.8477 22.0588ZM13.4277 11.6189C13.6556 11.2154 13.7695 10.8455 13.7695 10.5093H22.9004V11.6189H13.4277ZM7.27539 20.4449C7.30794 20.6802 7.43815 20.882 7.66602 21.0501C7.89388 21.2182 8.12175 21.3023 8.34961 21.3023H8.54492C8.80534 21.235 9.01693 21.0669 9.17969 20.7979C9.34245 20.5289 9.375 20.26 9.27734 19.991L8.25195 15.704C8.18685 15.4351 8.02409 15.2165 7.76367 15.0484C7.50326 14.8803 7.24284 14.8467 6.98242 14.9475C6.72201 15.0148 6.51042 15.1829 6.34766 15.4519C6.1849 15.7209 6.15234 15.973 6.25 16.2084L7.27539 20.4449ZM16.4551 21.3023H16.6504C16.8783 21.3023 17.1061 21.2182 17.334 21.0501C17.5618 20.882 17.6921 20.6802 17.7246 20.4449L18.75 16.1075C18.8151 15.8385 18.7744 15.5696 18.6279 15.3006C18.4814 15.0316 18.278 14.8803 18.0176 14.8467C17.334 14.7122 16.9108 14.9643 16.748 15.6032L15.7227 19.8901C15.5273 20.5626 15.7715 21.0333 16.4551 21.3023ZM12.5 21.3023C13.1836 21.3023 13.5254 20.9324 13.5254 20.1927V15.9058C13.5254 15.1997 13.1836 14.8467 12.5 14.8467C11.8164 14.8467 11.4746 15.1997 11.4746 15.9058V20.1927C11.4746 20.9324 11.8164 21.3023 12.5 21.3023Z" fill="white"/>
</svg>
