<svg width="278" height="69" viewBox="0 0 278 69" fill="none" xmlns="http://www.w3.org/2000/svg">
<g opacity="0.59">
<path d="M32.0884 17.2016H42.8718L61.3867 1V23.1301L63.0884 39.7807L58.4335 50.6182L44.3515 60.679L39.2404 65.8186L32.0884 68.2822L25 65.8186L32.0884 61.7955L36.8543 56.5466H32.0884V38.7734V17.2016Z" fill="#C4C4C4"/>
<path d="M32.0884 17.2016H42.8718M32.0884 17.2016L40.6301 33.8583M32.0884 17.2016V38.7734M42.8718 17.2016L61.3867 1M42.8718 17.2016L51.9597 23.1301M61.3867 1V23.1301M61.3867 1L51.9597 23.1301M61.3867 23.1301L63.0884 39.7807M61.3867 23.1301L51.9597 38.7734M61.3867 23.1301H51.9597M63.0884 39.7807L58.4335 50.6182M63.0884 39.7807L56.3865 47.3779M63.0884 39.7807L51.9597 38.7734M58.4335 50.6182L44.3515 60.679M58.4335 50.6182L56.3865 47.3779M44.3515 60.679L39.2404 65.8186M44.3515 60.679L45.597 46.5951M44.3515 60.679L39.2404 46.5951M44.3515 60.679L56.3865 47.3779M39.2404 65.8186L32.0884 68.2822L25 65.8186L32.0884 61.7955M39.2404 65.8186L36.8543 56.5466M39.2404 65.8186L32.0884 61.7955M36.8543 56.5466H32.0884M36.8543 56.5466L39.2404 46.5951M36.8543 56.5466L32.0884 61.7955M32.0884 56.5466L39.2404 46.5951M32.0884 56.5466V38.7734M39.2404 46.5951L43.6672 39.7807M39.2404 46.5951H45.597M43.6672 39.7807L51.9597 38.7734M43.6672 39.7807L51.9597 23.1301M43.6672 39.7807L40.6301 33.8583M45.597 46.5951L51.9597 38.7734M56.3865 47.3779L51.9597 38.7734M51.9597 38.7734V23.1301M40.6301 33.8583L32.0884 38.7734" stroke="#1C1818" stroke-width="0.5" stroke-linejoin="round"/>
<path d="M32 17.2016H21.2166L2.70167 1V23.1301L1 39.7807L5.65493 50.6182L19.7369 60.679L24.8481 65.8186L32 61.7955L27.2341 56.5466H32V38.7734V17.2016Z" fill="#C4C4C4"/>
<path d="M32 17.2016H21.2166M32 17.2016L23.4583 33.8583M32 17.2016V38.7734M21.2166 17.2016L2.70167 1M21.2166 17.2016L12.1287 23.1301M2.70167 1V23.1301M2.70167 1L12.1287 23.1301M2.70167 23.1301L1 39.7807M2.70167 23.1301L12.1287 38.7734M2.70167 23.1301H12.1287M1 39.7807L5.65493 50.6182M1 39.7807L7.70187 47.3779M1 39.7807L12.1287 38.7734M5.65493 50.6182L19.7369 60.679M5.65493 50.6182L7.70187 47.3779M19.7369 60.679L24.8481 65.8186M19.7369 60.679L18.4914 46.5951M19.7369 60.679L24.8481 46.5951M19.7369 60.679L7.70187 47.3779M24.8481 65.8186L32 68.2822M24.8481 65.8186L27.2341 56.5466M24.8481 65.8186L32 61.7955L27.2341 56.5466M27.2341 56.5466H32M27.2341 56.5466L24.8481 46.5951M32 56.5466L24.8481 46.5951M32 56.5466V38.7734M24.8481 46.5951L20.4212 39.7807M24.8481 46.5951H18.4914M20.4212 39.7807L12.1287 38.7734M20.4212 39.7807L12.1287 23.1301M20.4212 39.7807L23.4583 33.8583M18.4914 46.5951L12.1287 38.7734M7.70187 47.3779L12.1287 38.7734M12.1287 38.7734V23.1301M23.4583 33.8583L32 38.7734" stroke="#1C1818" stroke-width="0.5" stroke-linejoin="round"/>
</g>
<path d="M73.4456 22.433V44H78.1646V28.907H78.3986L85.4186 44H89.5136L96.8066 28.907H97.0406V44H101.838V22.433H95.5976L87.7196 38.072H87.5246L79.9586 22.433H73.4456ZM105.547 22.433V33.431C105.547 40.568 109.837 44.546 116.584 44.546C123.331 44.546 127.621 40.568 127.621 33.431V22.433H122.746V33.47C122.746 37.682 120.835 40.256 116.584 40.256C112.333 40.256 110.422 37.682 110.422 33.47V22.433H105.547ZM131.336 22.433V44H151.07V39.593H136.211V22.433H131.336ZM149.409 22.433V26.801H158.184V44H163.059V26.801H171.834V22.433H149.409ZM174.945 22.433V44H179.82V22.433H174.945ZM183.704 22.433V44H188.423V28.907H188.657L195.677 44H199.772L207.065 28.907H207.299V44H212.096V22.433H205.856L197.978 38.072H197.783L190.217 22.433H183.704ZM227.662 26.762H229.339L233.239 36.473H223.645L227.662 26.762ZM224.62 22.433L215.221 44H220.447L221.851 40.724H235.15L236.554 44H241.702L232.537 22.433H224.62ZM244.325 22.433L251.579 32.768L243.896 44H249.551L255.44 35.108H256.961L262.85 44H268.505L260.861 32.651L268.076 22.433H262.538L256.883 30.74H255.518L249.863 22.433H244.325Z" fill="white"/>
</svg>
