<svg width="5946" height="6449" viewBox="0 0 5946 6449" fill="none" xmlns="http://www.w3.org/2000/svg">
<g opacity="0.22">
<path d="M2973 1563.81H3999.86L5762.96 21V2128.35L5925 3713.92L5481.73 4745.93L4140.77 5703.98L3654.05 6193.4L2973 6428L2298 6193.4L2973 5810.3L3426.84 5310.47H2973V3618V1563.81Z" fill="#C4C4C4"/>
<path d="M2973 1563.81H3999.86M2973 1563.81L3786.39 3149.96M2973 1563.81V3618M3999.86 1563.81L5762.96 21M3999.86 1563.81L4865.26 2128.35M5762.96 21V2128.35M5762.96 21L4865.26 2128.35M5762.96 2128.35L5925 3713.92M5762.96 2128.35L4865.26 3618M5762.96 2128.35H4865.26M5925 3713.92L5481.73 4745.93M5925 3713.92L5286.81 4437.37M5925 3713.92L4865.26 3618M5481.73 4745.93L4140.77 5703.98M5481.73 4745.93L5286.81 4437.37M4140.77 5703.98L3654.05 6193.4M4140.77 5703.98L4259.36 4362.83M4140.77 5703.98L3654.05 4362.83M4140.77 5703.98L5286.81 4437.37M3654.05 6193.4L2973 6428L2298 6193.4L2973 5810.3M3654.05 6193.4L3426.84 5310.47M3654.05 6193.4L2973 5810.3M3426.84 5310.47H2973M3426.84 5310.47L3654.05 4362.83M3426.84 5310.47L2973 5810.3M2973 5310.47L3654.05 4362.83M2973 5310.47V3618M3654.05 4362.83L4075.6 3713.92M3654.05 4362.83H4259.36M4075.6 3713.92L4865.26 3618M4075.6 3713.92L4865.26 2128.35M4075.6 3713.92L3786.39 3149.96M4259.36 4362.83L4865.26 3618M5286.81 4437.37L4865.26 3618M4865.26 3618V2128.35M3786.39 3149.96L2973 3618" stroke="#1C1818" stroke-width="42" stroke-linejoin="round"/>
<path d="M2973 1563.81H1946.14L183.043 21V2128.35L21 3713.92L464.27 4745.93L1805.23 5703.98L2291.95 6193.4L2973 5810.3L2519.16 5310.47H2973V3618V1563.81Z" fill="#C4C4C4"/>
<path d="M2973 1563.81H1946.14M2973 1563.81L2159.61 3149.96M2973 1563.81V3618M1946.14 1563.81L183.043 21M1946.14 1563.81L1080.74 2128.35M183.043 21V2128.35M183.043 21L1080.74 2128.35M183.043 2128.35L20.9999 3713.92M183.043 2128.35L1080.74 3618M183.043 2128.35H1080.74M20.9999 3713.92L464.27 4745.93M20.9999 3713.92L659.191 4437.37M20.9999 3713.92L1080.74 3618M464.27 4745.93L1805.23 5703.98M464.27 4745.93L659.191 4437.37M1805.23 5703.98L2291.95 6193.4M1805.23 5703.98L1686.64 4362.83M1805.23 5703.98L2291.95 4362.83M1805.23 5703.98L659.191 4437.37M2291.95 6193.4L2973 6428M2291.95 6193.4L2519.16 5310.47M2291.95 6193.4L2973 5810.3L2519.16 5310.47M2519.16 5310.47H2973M2519.16 5310.47L2291.95 4362.83M2973 5310.47L2291.95 4362.83M2973 5310.47V3618M2291.95 4362.83L1870.4 3713.92M2291.95 4362.83H1686.64M1870.4 3713.92L1080.74 3618M1870.4 3713.92L1080.74 2128.35M1870.4 3713.92L2159.61 3149.96M1686.64 4362.83L1080.74 3618M659.191 4437.37L1080.74 3618M1080.74 3618V2128.35M2159.61 3149.96L2973 3618" stroke="#1C1818" stroke-width="42" stroke-linejoin="round"/>
</g>
</svg>
