<svg width="26" height="16" viewBox="0 0 26 16" fill="none" xmlns="http://www.w3.org/2000/svg">
<path d="M25.1616 1.76244C24.6696 1.05602 23.7645 0.576172 22.716 0.576172H12.7778V1.76244H25.1616ZM0 12.4388H25.5555V13.6251H0V12.4388ZM12.7778 7.69375H25.5555V8.88002H12.7778V7.69375ZM12.7778 5.32123H25.5555V6.50749H12.7778V5.32123ZM0 10.0663H25.5555V11.2525H0V10.0663ZM2.8395 15.9976H22.716C23.7645 15.9976 24.6696 15.5178 25.1616 14.8113H0.393981C0.885925 15.5178 1.79102 15.9976 2.8395 15.9976ZM12.7778 2.9487H25.5555V4.13496H12.7778V2.9487Z" fill="#B22334"/>
<path d="M0.0482716 13.8015C0.0603395 13.8567 0.0738271 13.9118 0.0901543 13.9658C0.108611 14.0257 0.131327 14.0832 0.155463 14.1414C0.218642 14.295 0.295308 14.4433 0.391852 14.582L0.393981 14.585H25.1616L25.163 14.5826C25.2583 14.4428 25.3372 14.2956 25.3987 14.1431C25.4454 14.0318 25.4815 13.9176 25.5066 13.8015C25.5357 13.671 25.5555 13.537 25.5555 13.3988H0C0 13.537 0.0198765 13.6704 0.0482716 13.8015ZM0 11.0262H25.5555V12.2125H0V11.0262ZM0 8.6537V9.83997H25.5555V8.6537H12.7778H0ZM12.7778 6.28118H25.5555V7.46744H12.7778V6.28118ZM12.7778 3.90866H25.5555V5.09492H12.7778V3.90866ZM0.393981 1.53613L0.391852 1.5391L0.393981 1.53613ZM0.0908642 2.15536C0.108611 2.09486 0.133457 2.03733 0.156173 1.9792C0.131521 2.03715 0.109733 2.09592 0.0908642 2.15536ZM12.7778 2.72239H25.5555C25.5555 2.5842 25.5357 2.45015 25.5066 2.31907C25.4817 2.20288 25.4454 2.0886 25.3979 1.97742C25.3364 1.82428 25.2573 1.67649 25.1616 1.53613H12.7778V2.72239Z" fill="#EEEEEE"/>
<path d="M12.7778 0.576172H2.83952C2.08643 0.576172 1.36419 0.826133 0.831676 1.27107C0.299163 1.716 0 2.31946 0 2.9487L0 8.88H12.7778V0.576172Z" fill="#3C3B6E"/>
<path d="M1.42041 2.19331L1.85912 2.45963L1.69158 2.88965L2.12958 2.62392L2.56829 2.88965L2.40076 2.45963L2.83946 2.19331H2.29711L2.12958 1.7627L1.96276 2.19331H1.42041ZM2.84017 3.37958L3.27888 3.64589L3.11135 4.07591L3.54934 3.81019L3.98805 4.07591L3.82052 3.64589L4.25922 3.37958H3.71687L3.54934 2.94896L3.38252 3.37958H2.84017ZM5.6797 3.37958L6.1184 3.64589L5.95087 4.07591L6.38887 3.81019L6.82757 4.07591L6.66004 3.64589L7.09875 3.37958H6.5564L6.38887 2.94896L6.22204 3.37958H5.6797ZM8.51922 3.37958L8.95792 3.64589L8.79039 4.07591L9.22839 3.81019L9.6671 4.07591L9.49956 3.64589L9.93827 3.37958H9.39592L9.22839 2.94896L9.06157 3.37958H8.51922ZM2.84017 5.75211L3.27888 6.01842L3.11135 6.44845L3.54934 6.18272L3.98805 6.44845L3.82052 6.01842L4.25922 5.75211H3.71687L3.54934 5.32149L3.38252 5.75211H2.84017ZM5.6797 5.75211L6.1184 6.01842L5.95087 6.44845L6.38887 6.18272L6.82757 6.44845L6.66004 6.01842L7.09875 5.75211H6.5564L6.38887 5.32149L6.22204 5.75211H5.6797ZM8.51922 5.75211L8.95792 6.01842L8.79039 6.44845L9.22839 6.18272L9.6671 6.44845L9.49956 6.01842L9.93827 5.75211H9.39592L9.22839 5.32149L9.06157 5.75211H8.51922ZM4.25993 2.19331L4.69864 2.45963L4.53111 2.88965L4.9691 2.62392L5.40781 2.88965L5.24028 2.45963L5.67899 2.19331H5.13664L4.9691 1.7627L4.80228 2.19331H4.25993ZM7.09946 2.19331L7.53816 2.45963L7.37063 2.88965L7.80863 2.62392L8.24733 2.88965L8.0798 2.45963L8.51851 2.19331H7.97616L7.80863 1.7627L7.64181 2.19331H7.09946ZM9.93898 2.19331L10.3777 2.45963L10.2102 2.88965L10.6482 2.62392L11.0869 2.88965L10.9193 2.45963L11.358 2.19331H10.8157L10.6482 1.7627L10.4813 2.19331H9.93898ZM1.42041 4.56584L1.85912 4.83216L1.69158 5.26218L2.12958 4.99646L2.56829 5.26218L2.40076 4.83216L2.83946 4.56584H2.29711L2.12958 4.13523L1.96276 4.56584H1.42041ZM4.53111 5.26218L4.9691 4.99646L5.40781 5.26218L5.24028 4.83216L5.67899 4.56584H5.13664L4.9691 4.13523L4.80228 4.56584H4.25993L4.69864 4.83216L4.53111 5.26218ZM7.09946 4.56584L7.53816 4.83216L7.37063 5.26218L7.80863 4.99646L8.24733 5.26218L8.0798 4.83216L8.51851 4.56584H7.97616L7.80863 4.13523L7.64181 4.56584H7.09946ZM9.93898 4.56584L10.3777 4.83216L10.2102 5.26218L10.6482 4.99646L11.0869 5.26218L10.9193 4.83216L11.358 4.56584H10.8157L10.6482 4.13523L10.4813 4.56584H9.93898ZM1.42041 6.93837L1.85912 7.20469L1.69158 7.63471L2.12958 7.36899L2.56829 7.63471L2.40076 7.20469L2.83946 6.93837H2.29711L2.12958 6.50776L1.96276 6.93837H1.42041ZM4.53111 7.63471L4.9691 7.36899L5.40781 7.63471L5.24028 7.20469L5.67899 6.93837H5.13664L4.9691 6.50776L4.80228 6.93837H4.25993L4.69864 7.20469L4.53111 7.63471ZM7.09946 6.93837L7.53816 7.20469L7.37063 7.63471L7.80863 7.36899L8.24733 7.63471L8.0798 7.20469L8.51851 6.93837H7.97616L7.80863 6.50776L7.64181 6.93837H7.09946ZM9.93898 6.93837L10.3777 7.20469L10.2102 7.63471L10.6482 7.36899L11.0869 7.63471L10.9193 7.20469L11.358 6.93837H10.8157L10.6482 6.50776L10.4813 6.93837H9.93898Z" fill="white"/>
</svg>
